<?xml version="1.0" encoding="utf-8"?>
<!-- Generator: Adobe Illustrator 22.0.1, SVG Export Plug-In . SVG Version: 6.00 Build 0)  -->
<svg version="1.1" id="Calque_1" xmlns="http://www.w3.org/2000/svg" xmlns:xlink="http://www.w3.org/1999/xlink" x="0px" y="0px"
	 viewBox="0 0 322.7 253.4" style="enable-background:new 0 0 322.7 253.4;" xml:space="preserve">
<style type="text/css">
	.st0{fill:none;}
	.st1{fill:#956829;}
</style>
<title>Logo</title>
<path class="st0" d="M89.9,209.7c6.8-1,12.5-5.7,14.6-12.3C104.5,197.4,91,197.2,89.9,209.7z"/>
<path class="st0" d="M72.1,214.6c3.8-0.6,14.2-4,15.8-13.4C87.9,201.2,73,203.5,72.1,214.6z"/>
<path class="st0" d="M84.8,197.4c-18.9-7.6-24.5,3.8-24.5,3.8c1.4-0.3,8.5,0.3,11.6,0.7C76.9,202.2,83.5,198.3,84.8,197.4z"/>
<path class="st0" d="M120.3,193.7c0,0-14-0.7-15.3,12.6C108,205.8,117.3,203,120.3,193.7z"/>
<path class="st0" d="M36.8,198.7c1.9,1,10.9,5.9,14.5-1.8C51.3,197,44.4,188.5,36.8,198.7z"/>
<path class="st0" d="M73.2,188.3c-3.4-6.3-12.8-5-14.5-4.5C67,193.3,73.2,188.3,73.2,188.3z"/>
<path class="st0" d="M51.3,213c2.5,1.2,12.7,5.2,19.2-6.9C70.6,206.1,56.2,200.4,51.3,213z"/>
<path class="st0" d="M60.3,191.7c-4.5-9.6-15.3-4.9-17.9-3.8c1.7,0.7,3.3,1.5,4.9,2.4C54.5,195.5,60.3,191.7,60.3,191.7z"/>
<path class="st0" d="M96.5,182c-2.4-2-5.6-2.5-8.5-1.5C88,180.5,90.4,185,96.5,182z"/>
<path class="st0" d="M80.2,192.2c0,0,12,6.9,23.6,0.8C101.2,191.7,91.4,185.1,80.2,192.2z"/>
<path class="st0" d="M136.2,192.2c0,0-11.2-3.5-14.4,8.5C124.7,200.5,131.9,200.1,136.2,192.2z"/>
<path class="st0" d="M224.3,184c-12.3-1.3-51.8-0.8-71.4,2.8c-0.5,1.3-1,2.6-1.3,4C153.6,190.4,212,183,224.3,184z"/>
<path class="st0" d="M87.2,184.7c-5.3-5.4-12.1-2.6-14-2.1C79,190.1,87.2,184.7,87.2,184.7z"/>
<path class="st0" d="M136.7,198c2.5,0.2,8.2,1.6,11.5-6.3C148.1,191.8,139.5,189.9,136.7,198z"/>
<path class="st0" d="M119.3,189.6c-3.4-2.4-11.1-8.6-21.1-3.1C98.2,186.6,106.5,195,119.3,189.6z"/>
<path class="st0" d="M148.1,188.2c0-2.3-0.3-7-11.5-6.5C136.7,181.6,140.8,190.1,148.1,188.2z"/>
<path class="st0" d="M136.7,187.9c-3-2.7-8.8-7.4-18.9-4.9C117.8,183,125.9,191.9,136.7,187.9z"/>
<path class="st0" d="M179.3,156.3c0.1,1.1,0.2,2.2,0.2,3.3c1-0.1,12.5-0.3,13,0.3c-0.1-1.1-0.1-2.2,0-3.3
	C191.5,156.4,180.6,156,179.3,156.3z"/>
<path class="st0" d="M163.7,144.8c0,0-0.2,3.3,0.4,3.9c1.3,0,11.6,0,12.6,0.3c0.1-1.4,0.1-3.7,0.3-4.2
	C172.6,144.5,168.2,144.5,163.7,144.8z"/>
<path class="st0" d="M170.2,168h4.8v-2.2h-5C170,166,170.2,168,170.2,168z"/>
<path class="st0" d="M230.9,147.7v2.6c0,0,8.1-0.3,8.8,0v-1.9C236.7,148,233.8,147.7,230.9,147.7z"/>
<path class="st0" d="M195.8,145.7c-0.6,0,0.4,3.6,0.4,3.6s10.9,0.2,11.6,0.4c-0.2-2-0.3-4-0.3-4C205.2,145.7,197,145.8,195.8,145.7z
	"/>
<path class="st0" d="M180.2,131.6c0,0,0.3,5,0,5.3c1.2-0.1,14.3-0.5,15.3-0.3c0-1.3-0.3-4.7,0-5C194.3,131.5,182,131.3,180.2,131.6z
	"/>
<path class="st0" d="M211.7,132.4v4.6c0,0,12.1-0.4,13,0c-0.1-1.6,0-3.9,0-3.9S212.2,132.3,211.7,132.4z"/>
<path class="st0" d="M219,158c-2.6-0.3-5.1-0.5-7.7-0.5c0,0,0.3,2.4,0,3c0.6,0,7.2,0.1,7.8,0.5C218.9,160,219.3,158.3,219,158z"/>
<polygon class="st0" points="199.7,169.3 203.6,169.1 203.6,168 199.7,167.2 "/>
<path class="st0" d="M136.3,144.8l0.4,4.1c0,0,14.2-0.4,15.2,0c-0.1-1.1-0.3-4.4,0-4.5C149,144.4,138.5,144.4,136.3,144.8z"/>
<path class="st0" d="M152.5,156c0.2,1.1,0.3,2.1,0.3,3.2c1,0,8.7-0.3,9.3,0c0.1-1,0.1-2,0-3C161.6,156.2,153.5,155.9,152.5,156z"/>
<path class="st0" d="M139.7,137.2c-0.1-0.6,0.1-3.1,0-5.1c-2.2-0.5-23.9,0.4-23.9,0.4s0.1,3.8,0,5.8
	C116.5,138,137.5,137.2,139.7,137.2z"/>
<path class="st0" d="M109.7,145.5c0.1,1.7,0.2,3.3,0.5,5c2.6-0.2,15.3-1.4,16.8-1.2c0-1.7-0.1-4.1,0-4.5
	C125,144.9,112.1,144.9,109.7,145.5z"/>
<path class="st0" d="M168.1,136.6c-0.2-1.7-0.2-3.4,0-5.1c-1.1-0.3-19.8,0-19.8,0c0.3,0.4,0.1,4.3,0,5.5
	C148.9,136.8,165.9,136.6,168.1,136.6z"/>
<path class="st0" d="M110.2,139c0,0-0.4-3.7-0.4-6.1c-3.6-0.4-15,1.3-15,1.3c-0.2,0.8,0.6,3.9,0.8,5.9
	C97.3,139.8,110.2,139,110.2,139z"/>
<path class="st0" d="M114.3,157c-0.8,0-11.3,0.4-12.3,0.5c0,0,0.9,3,0.9,3.5c3.9-0.5,7.9-0.8,11.9-0.9
	C114.8,159.6,114.6,157,114.3,157z"/>
<path class="st0" d="M124.8,156.5c0.2,1.1,0.3,2.2,0.3,3.3c1.6-0.1,12.2-0.6,12.8-0.5c0-1-0.1-2.1-0.3-3.1
	C137.1,156.2,126.3,156.3,124.8,156.5z"/>
<path class="st0" d="M123.1,165.5c-2.1-0.2-4.2-0.2-6.3,0c0,0,0.8,2.5,0.5,2.8c2.3,0,6-0.3,6.7,0
	C123.9,167.5,123.6,165.6,123.1,165.5z"/>
<path class="st0" d="M148.8,165.3c-1.1,0-5.3-0.1-6.1,0c0,0,0.6,2.4,0,2.7c1.3-0.1,6.6-0.3,6.8-0.2
	C149.4,167.2,149.8,165.3,148.8,165.3z"/>
<path class="st0" d="M104,150.8c-0.3-1.5-0.7-4.8-0.7-4.8c-1.7,0.1-14.7,0.6-15.3,1c0.2,1.4,0.8,4.7,1.1,4.9
	C89,151.9,103,150.3,104,150.8z"/>
<path class="st0" d="M101.8,166.3c-1.9-0.2-3.9-0.2-5.8,0l1.3,2.6c0,0,4.6-0.2,5.2,0C102.3,167.7,102.3,166.6,101.8,166.3z"/>
<path class="st0" d="M259.8,136.5c0,0-9.9-1.4-12.1-1.4v2.4c0,0,11-0.1,12.1,0.3C259.8,137.4,259.8,137,259.8,136.5z"/>
<path class="st0" d="M241.7,162.6c1.6-0.1,6.3-0.5,7,0v-2.3c0,0-4.5-0.8-6.7-1C241.9,159.3,242.1,162.1,241.7,162.6z"/>
<path class="st0" d="M261.7,111.8c-0.8,0.9-3,3.5-3.8,4.3c2,0.3,11.5,2.9,13-6.5C270.9,109.6,264,109.3,261.7,111.8z"/>
<path class="st0" d="M278.7,117.2c1.9,0.3,10.9,1,10.3-4.9C288.9,112.3,283.8,110.5,278.7,117.2z"/>
<path class="st0" d="M230.6,99.7c1.7,0.3,5.3-0.9,8.5,0c0.6-2.6,1.8-4.9,1-9.6C240.2,90.1,231.6,99.6,230.6,99.7z"/>
<path class="st0" d="M287.8,87.2c0,0-2.4,10.1-3.3,10.8C287,96.7,296.9,90.5,287.8,87.2z"/>
<path class="st0" d="M233.8,67.2c-1.7,3.2-3.6,6.4-5.6,9.4c-0.8,1.4-4.5,8.5-3.4,20.3c1.4-1.8,11.8-12.1,11.9-20.3
	C236.5,73.3,235.5,70,233.8,67.2z"/>
<path class="st0" d="M202.5,92.7c0,0,5.1-0.3,4.4,6.1h7C213.9,98.8,210.8,87.5,202.5,92.7z"/>
<path class="st0" d="M274.5,91.3c-3.5,1-11.5,0.8-15.6,0.9c3.6-1.4,19.5-11.4,21-13c-1.5-0.8-11.8-0.4-15,0c3.9-4.5,17-10,17-10
	c-4.6-11.7-20.4-0.4-21.1,0.6c-12.6,12.3-12.9,27.6-13.2,30.6c1.3-0.6,9,1.1,14.7,1.1C271.7,97.5,273.5,92.8,274.5,91.3z"/>
<path class="st0" d="M201,77.8c-19.9,0-21.1,20.2-21.1,20.2h6.6c7.6-23.9,30.8-11.5,30.8-11.5C217.7,79.8,202.9,77.8,201,77.8z"/>
<path class="st1" d="M207.5,195.4c13.5-3.2,83.2-14,115.8-8.8c-8.7-2.8-27.4-6.8-37.4-6.8c1.8-4.3,13.9-40,13.1-49.3
	c2.3-0.5,12,0,12-13.6c0-1-2.3-10.5-15.3-10.5c0.9-1.9,11.5-26.9-5.9-26.4c0.8-4,5-23.6-16.4-21.6c-0.9-5.1-8.2-25.7-25.2-8.6
	c3.4-1.8,21.9-6.3,4.8,17.5c-1.4-5-4.9-14.1-13.5-10.2c-0.3-7.4-0.2-16.4-6.8-21.9c-0.1-3.9-1.4-16.9-11.1-21.9
	c-1.9-3.3-6.4-10-15.4-10c3.3,2.5,7.8,8.6,7.8,17.8c-0.1,3-1.5,16.3,3.3,21.9c0.1-3.5,0.3-9.8,1.5-14.5c0.5-2.9,2-6.5,1.5-8.1
	c1.8,1.9,6.4,5.8,4.8,18.8c-0.4,3-1.9,13.4-1.9,15.4c1.6-3.3,4.8-7.8,7.8-8.9c0.6,2.1,2.8,16.3-5.4,25.4c-1.1-1.8-4-8.7-3.1-13.2
	c-0.9-0.8-2.9-2.6-3.4-3.9c-2.1-0.8-43.7-10.5-60.9-10.1c-0.1-1.9-0.1-3.7,0-5.6c0,0,3.5-2.6,2.8-6.6c1.1-0.6,5-1,4.9-6.5
	c2-0.5,5.5-1.6,6.9-5.3c1.9-0.1,7.3-0.8,8.1-3.1c3.2,0.8,6.5,1,9.8,0.5c1.6,1.4,6.3,4,10.5,2.8c1.8,3,4.7,5.1,8.1,6
	c-1.4-3.1-3.4-7.9-3.3-12c-0.3-1.8-0.3-13.3-10.8-12.4c1.6,1.4,3,2.1,3.8,5.5s1.3,9,1.6,10c-3.1-1.8-9.4-4.6-10.5-13.9
	c0.8-0.9,0.1-1.7,2.6-1.7c-3.1-1-6.9-2.3-12,0c2,0.8,7.4,5.3,9.1,12c-3-0.9-10.1-3.3-13.6-10.1c-2.8-0.4-7-0.6-9.5,2.1
	c2.9,0,7.6-0.6,9.9,8.3c-3.8,0.1-12.6-1.9-13-3c-0.2-1-0.2-2.1,0.1-3.1c-0.8,0.6-5.3,2.5-4.1,5.7c1.8,0.3,7.3,4.7,7.4,6
	c-1.6,0.4-12.3,2.2-12.5-3c-0.6,1.5-3.6,3.9-2.3,7c2.1,1,4.3,1.7,6.7,1.9c-1.5,2.1-3.6,4.6-9.4,5.6c0.2-1.3,0-2.2,0.4-2.9
	c-2.9,3.2-5,7-4.5,10.4c2.8-1.6,6.1-4.1,9-4.8c-0.4,2.6-1.1,7-6.8,9.9c-1.1-1-2.3-1-2.3-2.4c-0.9,2-1.6,2.6-1.6,3.9
	c-3.5,0.5-6.8,1.7-9.8,3.6c3.8-0.1,36.8-2.6,46,9.6c0.6,1.1,3.9,10.2-6.7,12.9c-0.4,6.1-1.5,27.9-1.5,27.9s-3.1-0.5-4.6,0.1
	c-2.1-1.4-20.1-12-36.4-15.1c0.1-5.9,0-15,0-15s-10.3-3-3.5-16.9c-2.6,2.1-11.4,8.3-1,20c-0.1,4.8-0.8,10.9-0.8,10.9
	s-33.1-10.2-48.2,2.3c7-1.3,16.9-3.6,20.6-1.4c-3.6,2.3-12,5.6-12.8,11.9c4.4-2.9,21-11.1,34.1-6.9c-3.1,1-13.8,3.6-19.5,11.9
	c4.3-1.6,30.1-10.5,41.5-4.6c-4.9,0.9-14.3,2.5-20.9,8.8c-5.3,0.4-27.8,3.6-29.4,4.9c-2.3-1.1-12.7-6.9-14.1-10.1
	c1.4,4.7,5.3,10.5,7.6,11.8c-2.7,0.7-5.3,1.6-7.8,2.7c0,0,105.3-16.7,178.7-5.3c-3.3,1-10.5,2.5-16,5.3c-4.5,2.5-9.6,3.7-14.7,3.5
	c2.2-1.8,7-6,7.3-7.3c-2.2,0-10.5,0.5-17.3,3.8c-3.3,1.3-6.8,2.7-17.5,3.5c2.7-2.2,6-7.2,9.2-8.9c-9.8,1.9-19.4,4.5-28.7,8
	c-3.6,1.2-7.3,1.8-11,2c1-2.3,2.5-6.5,4.7-8.2c-6.2,1.2-12.3,3.2-18,6c-2.3,1.2-7.3,2.7-10.8,3.8c0.3-2.7,0.3-6.7,1.2-9.3
	c-2.3,1.2-21.5,11.3-26.5,12.5c1.2-4.8,1.5-7.8,3-10.2c-2.3,1.5-16.2,10-23.7,11c0-2.8,0.5-7.9,1.7-9.8c-2,1.8-13,11.8-15.3,12
	c-0.6-2.7-0.6-5.6,0-8.3c-1.5,0.7-8.5,4.5-8.3,8.3c-1.7-1.7-3.3-3-4.5-6.3c-0.5,2.7-5.2,19,19.5,14.5c0.3,2.8,1,6.5,1,6.5l-7.8,0.8
	l5,17l7.7-1l0.5,3l-7.2,1l3.8,10.8c0,0,9-1.7,13.5,1.7c3-0.5,37.5-3.8,48.5,1.5c5.3-0.7,67.5-4.8,98.7,1.3
	c-8.2,0.3-86.3,0-101.7,2.8c-2.7-1.7-11.7-5.8-46.7-0.7c-1.8-1.2-20.8-6.8-92.8,10.2c8.3-0.3,23-1,25.5,0c-1.5,1.3-6.7,5.8-7.3,7.5
	c-1.3,0.5-20,6-25.2,9.8c6.7-2.2,21.5-5.2,25.2-5c2.2,0.8,7.5,1.8,7.5,3.3c-2,0.7-25.3,9.5-34.2,17.5c6.7-2.8,38.7-15.5,44.8-16.2
	c-1.5,3.2-2,5.2-4.2,6.7c-3,1-36.7,18.2-44.2,27c7-4.3,36.2-20,43.2-21.3c1.7,0.3,3.3,0.5,3.5,1.3c-2.5,1.3-31.8,21.8-34.5,25.8
	c6-3.7,30.8-20.5,42.5-24.8c3.8,0,6.5,0.7,8-0.3c-4.7,3.3-30.3,20.1-32.8,25.1c3.3-2,50.2-29.2,68.3-31.7
	c-4.7,2.8-39.3,20.8-43.5,28.2c3.7-2.3,44.2-23,55.2-26.2c-1.6,2.2-2.9,4.6-4,7.2c-3.3,1.5-31.7,17.2-36.7,23.7
	c8-4.5,37.5-18.7,40-19.2c3.8,0.3,9.8,1.2,11.8,0.5c-4.7,2.2-37.8,20.7-41,24.7c4.8-2.3,58.5-24.7,73-27.2
	c-5.2,2.2-43.2,20.3-49,27.2c8.7-4,79.5-34.8,96.8-37.7c-7,3.3-46.5,21-54.2,27.7c7.7-3.3,98.8-39.5,123.8-40.2
	c-9.8-0.2-47.2,2-52.2,2.5c12.3-3.3,72.3-13.2,86.8-11.3C295.2,193,218,192.9,207.5,195.4z M206.9,98.8c0.8-6.4-4.4-6.1-4.4-6.1
	c8.3-5.3,11.4,6.1,11.4,6.1H206.9z M186.5,98h-6.6c0,0,1.3-20.2,21.1-20.2c1.9,0,16.6,2.1,16.3,8.7C217.3,86.5,194.2,74.1,186.5,98z
	 M228.2,76.6c2.1-3,4-6.1,5.6-9.3c1.7,2.8,2.7,6,2.9,9.3c-0.1,8.2-10.5,18.5-11.9,20.3C223.7,85.1,227.4,78,228.2,76.6z M239.2,99.7
	c-3.3-0.9-6.9,0.3-8.5,0c1-0.1,9.5-9.6,9.5-9.6C240.9,94.8,239.8,97.1,239.2,99.7L239.2,99.7z M148.3,131.5c0,0,18.8-0.3,19.8,0
	c-0.2,1.7-0.2,3.4,0,5.1c-2.2,0-19.2,0.3-19.8,0.4C148.4,135.7,148.6,131.8,148.3,131.5z M115.8,132.5c0,0,21.7-0.9,23.9-0.4
	c0.1,1.9-0.1,4.5,0,5.1c-2.1,0-23.2,0.8-23.9,1.1C115.9,136.3,115.8,132.5,115.8,132.5L115.8,132.5z M127,149.3
	c-1.5-0.3-14.3,1-16.8,1.2c-0.3-1.7-0.4-3.3-0.5-5c2.4-0.6,15.3-0.6,17.3-0.7C126.9,145.3,127,147.6,127,149.3L127,149.3z
	 M94.8,134.2c0,0,11.4-1.6,15-1.3c0,2.4,0.4,6.1,0.4,6.1s-12.9,0.8-14.6,1.1C95.3,138.1,94.6,135,94.8,134.2z M89,151.9
	c-0.3-0.3-0.9-3.6-1.1-4.9c0.6-0.4,13.6-0.9,15.3-1c0,0,0.4,3.3,0.7,4.8C103,150.3,89,151.9,89,151.9z M97.3,168.9l-1.3-2.6
	c1.9-0.2,3.9-0.2,5.8,0c0.6,0.3,0.6,1.5,0.8,2.6C102,168.7,97.3,168.9,97.3,168.9L97.3,168.9z M114.8,160.1c-4,0.1-7.9,0.4-11.9,0.9
	c0-0.5-0.9-3.5-0.9-3.5c1-0.1,11.5-0.5,12.3-0.5C114.6,157,114.8,159.6,114.8,160.1L114.8,160.1z M117.3,168.3
	c0.3-0.3-0.5-2.8-0.5-2.8c2.1-0.2,4.2-0.2,6.3,0c0.5,0.1,0.8,2,0.9,2.8C123.2,168,119.5,168.2,117.3,168.3L117.3,168.3z
	 M125.1,159.8c0-1.1-0.1-2.2-0.3-3.3c1.5-0.2,12.3-0.3,12.8-0.3c0.2,1,0.3,2,0.3,3.1C137.3,159.2,126.7,159.7,125.1,159.8
	L125.1,159.8z M149.5,167.8c-0.3-0.1-5.5,0-6.8,0.2c0.6-0.3,0-2.7,0-2.7c0.8-0.1,5,0,6.1,0S149.4,167.2,149.5,167.8L149.5,167.8z
	 M152,148.9c-1-0.4-15.2,0-15.2,0l-0.4-4.1c2.2-0.4,12.6-0.4,15.6-0.4C151.7,144.6,151.9,147.8,152,148.9L152,148.9z M162.2,159.2
	c-0.6-0.3-8.3,0-9.3,0c0-1.1-0.1-2.2-0.3-3.2c1-0.2,9,0.1,9.6,0.2C162.3,157.2,162.3,158.2,162.2,159.2L162.2,159.2z M175,168h-4.8
	c0,0-0.2-2-0.2-2.2h5V168z M176.8,149c-1.1-0.3-11.3-0.3-12.6-0.3c-0.6-0.6-0.4-3.9-0.4-3.9c4.4-0.3,8.9-0.3,13.3,0
	C176.9,145.3,176.9,147.6,176.8,149L176.8,149z M192.5,159.8c-0.5-0.5-12.1-0.3-13-0.3c0-1.1-0.1-2.2-0.2-3.3
	c1.4-0.3,12.3,0.1,13.3,0.2C192.4,157.6,192.4,158.7,192.5,159.8L192.5,159.8z M195.4,136.7c-1-0.2-14.1,0.2-15.3,0.3
	c0.3-0.3,0-5.3,0-5.3c1.8-0.3,14.1-0.1,15.3,0C195.1,132,195.4,135.3,195.4,136.7L195.4,136.7z M203.6,169.1l-3.9,0.2v-2.1l3.9,0.8
	V169.1z M196.2,149.3c0,0-0.9-3.6-0.4-3.6c1.3,0.1,9.4,0,11.7,0c0,0,0.1,2,0.3,4C207,149.5,196.2,149.3,196.2,149.3L196.2,149.3z
	 M219,161.1c-0.5-0.4-7.2-0.5-7.8-0.5c0.3-0.6,0-3,0-3c2.6,0,5.2,0.2,7.8,0.5C219.3,158.3,218.9,160,219,161.1L219,161.1z
	 M224.7,137c-0.9-0.4-13,0-13,0v-4.6c0.6-0.1,13,0.6,13,0.6S224.6,135.3,224.7,137L224.7,137z M257.9,116.1c0.8-0.8,3-3.4,3.8-4.3
	c2.4-2.5,9.3-2.3,9.3-2.3C269.4,119,259.9,116.3,257.9,116.1L257.9,116.1z M278.7,117.2c5.1-6.8,10.3-4.9,10.3-4.9
	C289.5,118.2,280.5,117.5,278.7,117.2L278.7,117.2z M287.8,87.2c9.1,3.3-0.8,9.5-3.3,10.8C285.4,97.3,287.8,87.2,287.8,87.2
	L287.8,87.2z M247.5,100.5c0.4-3,0.6-18.4,13.2-30.6c0.8-1,16.5-12.4,21.1-0.6c0,0-13.1,5.5-17,10c3.3-0.4,13.5-0.8,15,0
	c-1.5,1.6-17.4,11.6-21,13c4.1-0.1,12.1,0.1,15.6-0.9c-1,1.5-2.9,6.1-12.3,10.3C256.5,101.6,248.8,99.8,247.5,100.5L247.5,100.5z
	 M239.6,150.3c-0.6-0.3-8.8,0-8.8,0v-2.6c2.9,0,5.9,0.3,8.8,0.7V150.3z M248.6,162.6c-0.7-0.5-5.4-0.1-7,0c0.5-0.5,0.3-3.3,0.3-3.3
	c2.2,0.1,6.7,1,6.7,1L248.6,162.6z M247.6,137.6v-2.4c2.3-0.1,12.1,1.4,12.1,1.4c0,0.5,0,0.9,0,1.4
	C258.7,137.5,247.7,137.6,247.6,137.6L247.6,137.6z M152.8,186.8c19.6-3.6,59.1-4,71.4-2.8c-12.3-1.1-70.8,6.3-72.7,6.8
	C151.9,189.4,152.4,188.1,152.8,186.8L152.8,186.8z M171.3,193.9c8-0.7,10.2,1.7,13.3,5C176.3,202.4,171.3,193.9,171.3,193.9z
	 M173.2,201.4c-10,4.7-18.2-2.3-18.2-2.3C163.3,194,168.5,197.7,173.2,201.4L173.2,201.4z M158.5,205.2c-11.3,7-21-2.2-21-2.2
	C144.4,200.2,152.3,201,158.5,205.2L158.5,205.2z M143.3,210.2c-7.2,6.5-20.5,0-20.5,0C129.4,202.5,139.2,207.9,143.3,210.2
	L143.3,210.2z M121.8,200.7c3.3-12,14.4-8.5,14.4-8.5C131.9,200.1,124.7,200.5,121.8,200.7L121.8,200.7z M136.7,198
	c2.8-8.2,11.5-6.3,11.5-6.3C144.8,199.6,139.2,198.2,136.7,198L136.7,198z M148.1,188.2c-7.3,2-11.5-6.5-11.5-6.5
	C147.8,181.1,148.2,185.8,148.1,188.2L148.1,188.2z M136.7,187.9c-10.8,4-18.9-4.9-18.9-4.9C127.9,180.5,133.7,185.2,136.7,187.9
	L136.7,187.9z M119.3,189.6c-12.8,5.3-21.2-3.1-21.2-3.1C108.2,181.1,115.9,187.2,119.3,189.6z M103.8,193
	c-11.6,6.1-23.6-0.8-23.6-0.8C91.4,185.1,101.2,191.7,103.8,193L103.8,193z M96.6,182c-6.1,3-8.5-1.5-8.5-1.5
	C91,179.4,94.2,180,96.6,182L96.6,182z M87.2,184.7c0,0-8.1,5.4-14-2.1C75,182.1,81.9,179.3,87.2,184.7L87.2,184.7z M73.2,188.3
	c0,0-6.1,5-14.5-4.5C60.4,183.3,69.8,182.1,73.2,188.3L73.2,188.3z M60.3,191.7c0,0-5.8,3.8-13-1.4c-1.6-0.9-3.2-1.7-4.9-2.4
	C45,186.8,55.8,182.1,60.3,191.7z M36.8,198.7c7.6-10.3,14.5-1.8,14.5-1.8C47.7,204.6,38.7,199.7,36.8,198.7L36.8,198.7z M51.3,213
	c4.9-12.7,19.2-6.9,19.2-6.9C64.1,218.2,53.8,214.2,51.3,213z M60.3,201.2c0,0,5.6-11.3,24.5-3.8c-1.3,0.9-7.9,4.8-12.9,4.4
	C68.8,201.5,61.7,200.9,60.3,201.2z M72.1,214.6c0.9-11.1,15.8-13.4,15.8-13.4C86.3,210.6,75.8,214,72.1,214.6z M89.9,209.7
	c1.1-12.5,14.6-12.3,14.6-12.3C102.4,203.9,96.7,208.7,89.9,209.7L89.9,209.7z M105,206.3c1.3-13.2,15.3-12.6,15.3-12.6
	C117.3,203,108,205.8,105,206.3L105,206.3z M113.8,222.3c4.5-12.3,16.2-7.2,16.2-7.2C126.7,224.6,116.5,222.7,113.8,222.3
	L113.8,222.3z M128.3,225.2c3.8-9,14-11.1,14-11.1C139,225.9,132.8,224.9,128.3,225.2L128.3,225.2z M143.3,222.1
	c0.7-11.2,14.3-13.4,14.3-13.4C157.2,218.4,146.7,221,143.3,222.1L143.3,222.1z M158,217.8c1.8-10.5,12.5-12.9,12.5-12.9
	C171.1,215,160.8,217.1,158,217.8L158,217.8z M170.8,214.1c3.1-12.1,13.2-12,13.2-12C183.6,210,174.1,213.7,170.8,214.1L170.8,214.1
	z M184,211.4c3.3-12.2,11.1-11.2,11.1-11.2C195.3,206.8,187.6,210,184,211.4L184,211.4z M184.7,192c7.3-0.7,8.3,1.3,11.7,4.7
	C185.7,199.4,184.7,192,184.7,192L184.7,192z M198.2,204.9c-0.6-6.9,4.6-7.6,4.6-7.6C205.4,202.6,200.3,203.6,198.2,204.9
	L198.2,204.9z"/>
<circle class="st1" cx="138.2" cy="58.8" r="2.7"/>
<circle class="st1" cx="151.9" cy="57" r="1.7"/>
<circle class="st1" cx="166.4" cy="60.5" r="1.7"/>
<circle class="st1" cx="158.2" cy="65.1" r="1.6"/>
<circle class="st1" cx="166.4" cy="71" r="1.7"/>
<circle class="st1" cx="155.6" cy="76.5" r="1.2"/>
<circle class="st1" cx="163.6" cy="85.7" r="2.2"/>
<circle class="st1" cx="153.4" cy="84.2" r="1.5"/>
<circle class="st1" cx="140.2" cy="81.4" r="2"/>
<circle class="st1" cx="144.7" cy="69.7" r="2.5"/>
</svg>
